<mxfile host="app.diagrams.net" agent="Mozilla/5.0 (Windows NT 10.0; Win64; x64) AppleWebKit/537.36 (KHTML, like Gecko) Chrome/132.0.0.0 Safari/537.36" version="24.9.1">
  <diagram name="PÃ¡gina-1" id="0Vzocp9vEpaauH--aWpd">
    <mxGraphModel dx="1855" dy="1767" grid="1" gridSize="10" guides="1" tooltips="1" connect="1" arrows="1" fold="1" page="1" pageScale="1" pageWidth="827" pageHeight="1169" math="0" shadow="0">
      <root>
        <mxCell id="0" />
        <mxCell id="1" parent="0" />
        <mxCell id="EYUkk5wbW2DX1IVmlkEt-1" value="CURSO" style="rounded=0;whiteSpace=wrap;html=1;" vertex="1" parent="1">
          <mxGeometry x="60" y="60" width="120" height="60" as="geometry" />
        </mxCell>
        <mxCell id="EYUkk5wbW2DX1IVmlkEt-2" value="PERTENCE" style="rhombus;whiteSpace=wrap;html=1;" vertex="1" parent="1">
          <mxGeometry x="300" y="60" width="100" height="60" as="geometry" />
        </mxCell>
        <mxCell id="EYUkk5wbW2DX1IVmlkEt-3" value="AREA" style="rounded=0;whiteSpace=wrap;html=1;" vertex="1" parent="1">
          <mxGeometry x="560" y="60" width="120" height="60" as="geometry" />
        </mxCell>
        <mxCell id="EYUkk5wbW2DX1IVmlkEt-4" value="" style="endArrow=none;html=1;rounded=0;exitX=1;exitY=0.5;exitDx=0;exitDy=0;entryX=0.04;entryY=0.533;entryDx=0;entryDy=0;entryPerimeter=0;exitPerimeter=0;" edge="1" parent="1" source="EYUkk5wbW2DX1IVmlkEt-1" target="EYUkk5wbW2DX1IVmlkEt-2">
          <mxGeometry width="50" height="50" relative="1" as="geometry">
            <mxPoint x="180" y="92" as="sourcePoint" />
            <mxPoint x="300" y="92" as="targetPoint" />
          </mxGeometry>
        </mxCell>
        <mxCell id="EYUkk5wbW2DX1IVmlkEt-5" value="" style="endArrow=none;html=1;rounded=0;entryX=0.033;entryY=0.467;entryDx=0;entryDy=0;entryPerimeter=0;" edge="1" parent="1" target="EYUkk5wbW2DX1IVmlkEt-2">
          <mxGeometry width="50" height="50" relative="1" as="geometry">
            <mxPoint x="179.4" y="87" as="sourcePoint" />
            <mxPoint x="300" y="88" as="targetPoint" />
          </mxGeometry>
        </mxCell>
        <mxCell id="EYUkk5wbW2DX1IVmlkEt-7" value="1" style="edgeLabel;html=1;align=center;verticalAlign=middle;resizable=0;points=[];" vertex="1" connectable="0" parent="EYUkk5wbW2DX1IVmlkEt-5">
          <mxGeometry x="0.0372" y="1" relative="1" as="geometry">
            <mxPoint as="offset" />
          </mxGeometry>
        </mxCell>
        <mxCell id="EYUkk5wbW2DX1IVmlkEt-6" value="" style="endArrow=none;html=1;rounded=0;entryX=0;entryY=0.5;entryDx=0;entryDy=0;exitX=1;exitY=0.5;exitDx=0;exitDy=0;" edge="1" parent="1" source="EYUkk5wbW2DX1IVmlkEt-2" target="EYUkk5wbW2DX1IVmlkEt-3">
          <mxGeometry width="50" height="50" relative="1" as="geometry">
            <mxPoint x="360" y="110" as="sourcePoint" />
            <mxPoint x="410" y="60" as="targetPoint" />
          </mxGeometry>
        </mxCell>
        <mxCell id="EYUkk5wbW2DX1IVmlkEt-8" value="n" style="edgeLabel;html=1;align=center;verticalAlign=middle;resizable=0;points=[];" vertex="1" connectable="0" parent="EYUkk5wbW2DX1IVmlkEt-6">
          <mxGeometry x="0.1813" relative="1" as="geometry">
            <mxPoint as="offset" />
          </mxGeometry>
        </mxCell>
        <mxCell id="EYUkk5wbW2DX1IVmlkEt-9" value="INTEGRA" style="rhombus;whiteSpace=wrap;html=1;" vertex="1" parent="1">
          <mxGeometry x="570" y="170" width="100" height="70" as="geometry" />
        </mxCell>
        <mxCell id="EYUkk5wbW2DX1IVmlkEt-11" value="" style="endArrow=none;html=1;rounded=0;entryX=0.5;entryY=1;entryDx=0;entryDy=0;exitX=0.5;exitY=0;exitDx=0;exitDy=0;" edge="1" parent="1" source="EYUkk5wbW2DX1IVmlkEt-9" target="EYUkk5wbW2DX1IVmlkEt-3">
          <mxGeometry width="50" height="50" relative="1" as="geometry">
            <mxPoint x="520" y="240" as="sourcePoint" />
            <mxPoint x="570" y="190" as="targetPoint" />
          </mxGeometry>
        </mxCell>
        <mxCell id="EYUkk5wbW2DX1IVmlkEt-14" value="N" style="edgeLabel;html=1;align=center;verticalAlign=middle;resizable=0;points=[];" vertex="1" connectable="0" parent="EYUkk5wbW2DX1IVmlkEt-11">
          <mxGeometry x="-0.1133" y="1" relative="1" as="geometry">
            <mxPoint x="1" as="offset" />
          </mxGeometry>
        </mxCell>
        <mxCell id="EYUkk5wbW2DX1IVmlkEt-12" value="" style="endArrow=none;html=1;rounded=0;exitX=1;exitY=0.5;exitDx=0;exitDy=0;entryX=1;entryY=0.5;entryDx=0;entryDy=0;" edge="1" parent="1" source="EYUkk5wbW2DX1IVmlkEt-9" target="EYUkk5wbW2DX1IVmlkEt-3">
          <mxGeometry width="50" height="50" relative="1" as="geometry">
            <mxPoint x="710" y="210" as="sourcePoint" />
            <mxPoint x="730" y="90" as="targetPoint" />
            <Array as="points">
              <mxPoint x="730" y="205" />
              <mxPoint x="730" y="90" />
            </Array>
          </mxGeometry>
        </mxCell>
        <mxCell id="EYUkk5wbW2DX1IVmlkEt-13" value="1" style="edgeLabel;html=1;align=center;verticalAlign=middle;resizable=0;points=[];" vertex="1" connectable="0" parent="EYUkk5wbW2DX1IVmlkEt-12">
          <mxGeometry x="-0.6563" y="1" relative="1" as="geometry">
            <mxPoint y="1" as="offset" />
          </mxGeometry>
        </mxCell>
        <mxCell id="EYUkk5wbW2DX1IVmlkEt-15" value="&lt;u&gt;sigla&lt;/u&gt;" style="ellipse;whiteSpace=wrap;html=1;" vertex="1" parent="1">
          <mxGeometry x="540" y="-10" width="50" height="30" as="geometry" />
        </mxCell>
        <mxCell id="EYUkk5wbW2DX1IVmlkEt-16" value="&lt;u&gt;nome&lt;/u&gt;" style="ellipse;whiteSpace=wrap;html=1;" vertex="1" parent="1">
          <mxGeometry x="650" y="-10" width="50" height="30" as="geometry" />
        </mxCell>
        <mxCell id="EYUkk5wbW2DX1IVmlkEt-17" value="" style="endArrow=none;html=1;rounded=0;entryX=0.5;entryY=1;entryDx=0;entryDy=0;exitX=0.167;exitY=0;exitDx=0;exitDy=0;exitPerimeter=0;" edge="1" parent="1" source="EYUkk5wbW2DX1IVmlkEt-3" target="EYUkk5wbW2DX1IVmlkEt-15">
          <mxGeometry width="50" height="50" relative="1" as="geometry">
            <mxPoint x="490" y="80" as="sourcePoint" />
            <mxPoint x="540" y="30" as="targetPoint" />
          </mxGeometry>
        </mxCell>
        <mxCell id="EYUkk5wbW2DX1IVmlkEt-18" value="" style="endArrow=none;html=1;rounded=0;entryX=0.34;entryY=1.044;entryDx=0;entryDy=0;entryPerimeter=0;exitX=0.75;exitY=0;exitDx=0;exitDy=0;" edge="1" parent="1" source="EYUkk5wbW2DX1IVmlkEt-3" target="EYUkk5wbW2DX1IVmlkEt-16">
          <mxGeometry width="50" height="50" relative="1" as="geometry">
            <mxPoint x="490" y="80" as="sourcePoint" />
            <mxPoint x="540" y="30" as="targetPoint" />
          </mxGeometry>
        </mxCell>
        <mxCell id="EYUkk5wbW2DX1IVmlkEt-19" value="&lt;u&gt;sigla&lt;/u&gt;" style="ellipse;whiteSpace=wrap;html=1;" vertex="1" parent="1">
          <mxGeometry x="20" y="-10" width="60" height="30" as="geometry" />
        </mxCell>
        <mxCell id="EYUkk5wbW2DX1IVmlkEt-20" value="nome" style="ellipse;whiteSpace=wrap;html=1;" vertex="1" parent="1">
          <mxGeometry x="160" y="-10" width="60" height="30" as="geometry" />
        </mxCell>
        <mxCell id="EYUkk5wbW2DX1IVmlkEt-24" value="professores" style="ellipse;whiteSpace=wrap;html=1;" vertex="1" parent="1">
          <mxGeometry x="-50" y="40" width="80" height="30" as="geometry" />
        </mxCell>
        <mxCell id="EYUkk5wbW2DX1IVmlkEt-25" value="custo" style="ellipse;whiteSpace=wrap;html=1;" vertex="1" parent="1">
          <mxGeometry x="90" y="-10" width="60" height="30" as="geometry" />
        </mxCell>
        <mxCell id="EYUkk5wbW2DX1IVmlkEt-27" value="CPF" style="ellipse;whiteSpace=wrap;html=1;align=center;dashed=1;" vertex="1" parent="1">
          <mxGeometry x="-70" y="110" width="40" height="20" as="geometry" />
        </mxCell>
        <mxCell id="EYUkk5wbW2DX1IVmlkEt-28" value="nome" style="ellipse;whiteSpace=wrap;html=1;align=center;dashed=1;" vertex="1" parent="1">
          <mxGeometry x="-70" y="80" width="40" height="20" as="geometry" />
        </mxCell>
        <mxCell id="EYUkk5wbW2DX1IVmlkEt-30" value="" style="endArrow=none;html=1;rounded=0;entryX=0.381;entryY=0.961;entryDx=0;entryDy=0;entryPerimeter=0;exitX=0;exitY=0;exitDx=0;exitDy=0;" edge="1" parent="1" source="EYUkk5wbW2DX1IVmlkEt-1" target="EYUkk5wbW2DX1IVmlkEt-19">
          <mxGeometry width="50" height="50" relative="1" as="geometry">
            <mxPoint x="170" y="80" as="sourcePoint" />
            <mxPoint x="220" y="30" as="targetPoint" />
          </mxGeometry>
        </mxCell>
        <mxCell id="EYUkk5wbW2DX1IVmlkEt-31" value="" style="endArrow=none;html=1;rounded=0;entryX=0.5;entryY=1;entryDx=0;entryDy=0;exitX=0.5;exitY=0;exitDx=0;exitDy=0;" edge="1" parent="1" source="EYUkk5wbW2DX1IVmlkEt-1" target="EYUkk5wbW2DX1IVmlkEt-25">
          <mxGeometry width="50" height="50" relative="1" as="geometry">
            <mxPoint x="120" y="50" as="sourcePoint" />
            <mxPoint x="220" y="30" as="targetPoint" />
          </mxGeometry>
        </mxCell>
        <mxCell id="EYUkk5wbW2DX1IVmlkEt-32" value="" style="endArrow=none;html=1;rounded=0;entryX=0.5;entryY=1;entryDx=0;entryDy=0;exitX=0.75;exitY=0;exitDx=0;exitDy=0;" edge="1" parent="1" source="EYUkk5wbW2DX1IVmlkEt-1" target="EYUkk5wbW2DX1IVmlkEt-20">
          <mxGeometry width="50" height="50" relative="1" as="geometry">
            <mxPoint x="170" y="80" as="sourcePoint" />
            <mxPoint x="220" y="30" as="targetPoint" />
          </mxGeometry>
        </mxCell>
        <mxCell id="EYUkk5wbW2DX1IVmlkEt-33" value="" style="endArrow=none;html=1;rounded=0;entryX=1;entryY=0.5;entryDx=0;entryDy=0;" edge="1" parent="1" target="EYUkk5wbW2DX1IVmlkEt-24">
          <mxGeometry width="50" height="50" relative="1" as="geometry">
            <mxPoint x="60" y="80" as="sourcePoint" />
            <mxPoint x="220" y="110" as="targetPoint" />
          </mxGeometry>
        </mxCell>
        <mxCell id="EYUkk5wbW2DX1IVmlkEt-34" value="" style="endArrow=none;html=1;rounded=0;entryX=1;entryY=0.5;entryDx=0;entryDy=0;exitX=0;exitY=0.5;exitDx=0;exitDy=0;" edge="1" parent="1" source="EYUkk5wbW2DX1IVmlkEt-1" target="EYUkk5wbW2DX1IVmlkEt-28">
          <mxGeometry width="50" height="50" relative="1" as="geometry">
            <mxPoint x="170" y="160" as="sourcePoint" />
            <mxPoint x="220" y="110" as="targetPoint" />
          </mxGeometry>
        </mxCell>
        <mxCell id="EYUkk5wbW2DX1IVmlkEt-36" value="" style="endArrow=none;html=1;rounded=0;exitX=1;exitY=0.5;exitDx=0;exitDy=0;entryX=0.014;entryY=0.856;entryDx=0;entryDy=0;entryPerimeter=0;" edge="1" parent="1" source="EYUkk5wbW2DX1IVmlkEt-27" target="EYUkk5wbW2DX1IVmlkEt-1">
          <mxGeometry width="50" height="50" relative="1" as="geometry">
            <mxPoint x="170" y="160" as="sourcePoint" />
            <mxPoint x="220" y="110" as="targetPoint" />
          </mxGeometry>
        </mxCell>
        <mxCell id="EYUkk5wbW2DX1IVmlkEt-37" value="ALUNO" style="rounded=0;whiteSpace=wrap;html=1;" vertex="1" parent="1">
          <mxGeometry x="50" y="340" width="120" height="60" as="geometry" />
        </mxCell>
        <mxCell id="EYUkk5wbW2DX1IVmlkEt-38" value="&lt;u&gt;CPF&lt;/u&gt;" style="ellipse;whiteSpace=wrap;html=1;" vertex="1" parent="1">
          <mxGeometry x="-70" y="350" width="50" height="40" as="geometry" />
        </mxCell>
        <mxCell id="EYUkk5wbW2DX1IVmlkEt-40" value="data_nascimento" style="ellipse;whiteSpace=wrap;html=1;" vertex="1" parent="1">
          <mxGeometry x="-110" y="450" width="110" height="40" as="geometry" />
        </mxCell>
        <mxCell id="EYUkk5wbW2DX1IVmlkEt-41" value="sexo" style="ellipse;whiteSpace=wrap;html=1;" vertex="1" parent="1">
          <mxGeometry x="-70" y="400" width="50" height="40" as="geometry" />
        </mxCell>
        <mxCell id="EYUkk5wbW2DX1IVmlkEt-42" value="sobrenome" style="ellipse;whiteSpace=wrap;html=1;" vertex="1" parent="1">
          <mxGeometry x="-45" y="510" width="70" height="40" as="geometry" />
        </mxCell>
        <mxCell id="EYUkk5wbW2DX1IVmlkEt-43" value="nome" style="ellipse;whiteSpace=wrap;html=1;" vertex="1" parent="1">
          <mxGeometry x="40" y="470" width="50" height="40" as="geometry" />
        </mxCell>
        <mxCell id="EYUkk5wbW2DX1IVmlkEt-45" value="" style="endArrow=none;html=1;rounded=0;entryX=0;entryY=1;entryDx=0;entryDy=0;exitX=1;exitY=0.5;exitDx=0;exitDy=0;" edge="1" parent="1" source="EYUkk5wbW2DX1IVmlkEt-42" target="EYUkk5wbW2DX1IVmlkEt-43">
          <mxGeometry width="50" height="50" relative="1" as="geometry">
            <mxPoint x="300" y="460" as="sourcePoint" />
            <mxPoint x="350" y="410" as="targetPoint" />
          </mxGeometry>
        </mxCell>
        <mxCell id="EYUkk5wbW2DX1IVmlkEt-46" value="" style="endArrow=none;html=1;rounded=0;entryX=0.5;entryY=1;entryDx=0;entryDy=0;exitX=0.5;exitY=0;exitDx=0;exitDy=0;" edge="1" parent="1" source="EYUkk5wbW2DX1IVmlkEt-43" target="EYUkk5wbW2DX1IVmlkEt-37">
          <mxGeometry width="50" height="50" relative="1" as="geometry">
            <mxPoint x="300" y="460" as="sourcePoint" />
            <mxPoint x="350" y="410" as="targetPoint" />
          </mxGeometry>
        </mxCell>
        <mxCell id="EYUkk5wbW2DX1IVmlkEt-47" value="" style="endArrow=none;html=1;rounded=0;entryX=0.25;entryY=1;entryDx=0;entryDy=0;exitX=1;exitY=0.5;exitDx=0;exitDy=0;" edge="1" parent="1" source="EYUkk5wbW2DX1IVmlkEt-40" target="EYUkk5wbW2DX1IVmlkEt-37">
          <mxGeometry width="50" height="50" relative="1" as="geometry">
            <mxPoint x="20" y="450" as="sourcePoint" />
            <mxPoint x="350" y="410" as="targetPoint" />
          </mxGeometry>
        </mxCell>
        <mxCell id="EYUkk5wbW2DX1IVmlkEt-48" value="" style="endArrow=none;html=1;rounded=0;entryX=1;entryY=0.5;entryDx=0;entryDy=0;exitX=0;exitY=0.75;exitDx=0;exitDy=0;" edge="1" parent="1" source="EYUkk5wbW2DX1IVmlkEt-37" target="EYUkk5wbW2DX1IVmlkEt-41">
          <mxGeometry width="50" height="50" relative="1" as="geometry">
            <mxPoint x="300" y="460" as="sourcePoint" />
            <mxPoint x="350" y="410" as="targetPoint" />
          </mxGeometry>
        </mxCell>
        <mxCell id="EYUkk5wbW2DX1IVmlkEt-49" value="" style="endArrow=none;html=1;rounded=0;entryX=1;entryY=0.5;entryDx=0;entryDy=0;exitX=0;exitY=0.5;exitDx=0;exitDy=0;" edge="1" parent="1" source="EYUkk5wbW2DX1IVmlkEt-37" target="EYUkk5wbW2DX1IVmlkEt-38">
          <mxGeometry width="50" height="50" relative="1" as="geometry">
            <mxPoint x="170" y="500" as="sourcePoint" />
            <mxPoint x="220" y="450" as="targetPoint" />
          </mxGeometry>
        </mxCell>
        <mxCell id="EYUkk5wbW2DX1IVmlkEt-50" value="MATRICULA" style="rhombus;whiteSpace=wrap;html=1;" vertex="1" parent="1">
          <mxGeometry x="70" y="200" width="100" height="75" as="geometry" />
        </mxCell>
        <mxCell id="EYUkk5wbW2DX1IVmlkEt-51" value="" style="endArrow=none;html=1;rounded=0;entryX=0.5;entryY=1;entryDx=0;entryDy=0;exitX=0.566;exitY=-0.019;exitDx=0;exitDy=0;exitPerimeter=0;" edge="1" parent="1" source="EYUkk5wbW2DX1IVmlkEt-37" target="EYUkk5wbW2DX1IVmlkEt-50">
          <mxGeometry width="50" height="50" relative="1" as="geometry">
            <mxPoint x="300" y="360" as="sourcePoint" />
            <mxPoint x="350" y="310" as="targetPoint" />
          </mxGeometry>
        </mxCell>
        <mxCell id="EYUkk5wbW2DX1IVmlkEt-53" value="N" style="edgeLabel;html=1;align=center;verticalAlign=middle;resizable=0;points=[];" vertex="1" connectable="0" parent="EYUkk5wbW2DX1IVmlkEt-51">
          <mxGeometry x="0.1463" y="-5" relative="1" as="geometry">
            <mxPoint as="offset" />
          </mxGeometry>
        </mxCell>
        <mxCell id="EYUkk5wbW2DX1IVmlkEt-52" value="" style="endArrow=none;html=1;rounded=0;entryX=0.5;entryY=1;entryDx=0;entryDy=0;exitX=0.5;exitY=0;exitDx=0;exitDy=0;" edge="1" parent="1" source="EYUkk5wbW2DX1IVmlkEt-50" target="EYUkk5wbW2DX1IVmlkEt-1">
          <mxGeometry width="50" height="50" relative="1" as="geometry">
            <mxPoint x="300" y="360" as="sourcePoint" />
            <mxPoint x="350" y="310" as="targetPoint" />
          </mxGeometry>
        </mxCell>
        <mxCell id="EYUkk5wbW2DX1IVmlkEt-54" value="1" style="edgeLabel;html=1;align=center;verticalAlign=middle;resizable=0;points=[];" vertex="1" connectable="0" parent="EYUkk5wbW2DX1IVmlkEt-52">
          <mxGeometry x="-0.0309" y="-1" relative="1" as="geometry">
            <mxPoint as="offset" />
          </mxGeometry>
        </mxCell>
        <mxCell id="EYUkk5wbW2DX1IVmlkEt-55" value="data" style="ellipse;whiteSpace=wrap;html=1;" vertex="1" parent="1">
          <mxGeometry x="-20" y="190" width="50" height="40" as="geometry" />
        </mxCell>
        <mxCell id="EYUkk5wbW2DX1IVmlkEt-56" value="mensalidade" style="ellipse;whiteSpace=wrap;html=1;" vertex="1" parent="1">
          <mxGeometry x="-50" y="250" width="90" height="50" as="geometry" />
        </mxCell>
        <mxCell id="EYUkk5wbW2DX1IVmlkEt-57" value="" style="endArrow=none;html=1;rounded=0;entryX=1;entryY=0.5;entryDx=0;entryDy=0;exitX=0;exitY=1;exitDx=0;exitDy=0;" edge="1" parent="1" source="EYUkk5wbW2DX1IVmlkEt-50" target="EYUkk5wbW2DX1IVmlkEt-56">
          <mxGeometry width="50" height="50" relative="1" as="geometry">
            <mxPoint x="300" y="240" as="sourcePoint" />
            <mxPoint x="350" y="190" as="targetPoint" />
          </mxGeometry>
        </mxCell>
        <mxCell id="EYUkk5wbW2DX1IVmlkEt-58" value="" style="endArrow=none;html=1;rounded=0;entryX=1;entryY=0.5;entryDx=0;entryDy=0;exitX=0;exitY=0;exitDx=0;exitDy=0;" edge="1" parent="1" source="EYUkk5wbW2DX1IVmlkEt-50" target="EYUkk5wbW2DX1IVmlkEt-55">
          <mxGeometry width="50" height="50" relative="1" as="geometry">
            <mxPoint x="100" y="220" as="sourcePoint" />
            <mxPoint x="350" y="190" as="targetPoint" />
          </mxGeometry>
        </mxCell>
        <mxCell id="EYUkk5wbW2DX1IVmlkEt-59" value="MODULO" style="rounded=0;whiteSpace=wrap;html=1;" vertex="1" parent="1">
          <mxGeometry x="414" y="340" width="120" height="60" as="geometry" />
        </mxCell>
        <mxCell id="EYUkk5wbW2DX1IVmlkEt-60" value="tÃ³picos" style="ellipse;whiteSpace=wrap;html=1;" vertex="1" parent="1">
          <mxGeometry x="660" y="352.5" width="70" height="35" as="geometry" />
        </mxCell>
        <mxCell id="EYUkk5wbW2DX1IVmlkEt-61" value="&lt;u&gt;sigla&lt;/u&gt;" style="ellipse;whiteSpace=wrap;html=1;" vertex="1" parent="1">
          <mxGeometry x="660" y="300" width="70" height="35" as="geometry" />
        </mxCell>
        <mxCell id="EYUkk5wbW2DX1IVmlkEt-62" value="nome" style="ellipse;whiteSpace=wrap;html=1;" vertex="1" parent="1">
          <mxGeometry x="650" y="405" width="70" height="35" as="geometry" />
        </mxCell>
        <mxCell id="EYUkk5wbW2DX1IVmlkEt-63" value="horas" style="ellipse;whiteSpace=wrap;html=1;" vertex="1" parent="1">
          <mxGeometry x="640" y="455" width="70" height="35" as="geometry" />
        </mxCell>
        <mxCell id="EYUkk5wbW2DX1IVmlkEt-64" value="" style="endArrow=none;html=1;rounded=0;entryX=0;entryY=0.5;entryDx=0;entryDy=0;exitX=1;exitY=1;exitDx=0;exitDy=0;" edge="1" parent="1" source="EYUkk5wbW2DX1IVmlkEt-59" target="EYUkk5wbW2DX1IVmlkEt-62">
          <mxGeometry width="50" height="50" relative="1" as="geometry">
            <mxPoint x="300" y="240" as="sourcePoint" />
            <mxPoint x="350" y="190" as="targetPoint" />
          </mxGeometry>
        </mxCell>
        <mxCell id="EYUkk5wbW2DX1IVmlkEt-65" value="" style="endArrow=none;html=1;rounded=0;entryX=0;entryY=0.5;entryDx=0;entryDy=0;exitX=0.883;exitY=1;exitDx=0;exitDy=0;exitPerimeter=0;" edge="1" parent="1" source="EYUkk5wbW2DX1IVmlkEt-59" target="EYUkk5wbW2DX1IVmlkEt-63">
          <mxGeometry width="50" height="50" relative="1" as="geometry">
            <mxPoint x="300" y="240" as="sourcePoint" />
            <mxPoint x="350" y="190" as="targetPoint" />
          </mxGeometry>
        </mxCell>
        <mxCell id="EYUkk5wbW2DX1IVmlkEt-66" value="" style="endArrow=none;html=1;rounded=0;entryX=0;entryY=0.5;entryDx=0;entryDy=0;exitX=1;exitY=0.75;exitDx=0;exitDy=0;" edge="1" parent="1" source="EYUkk5wbW2DX1IVmlkEt-59" target="EYUkk5wbW2DX1IVmlkEt-60">
          <mxGeometry width="50" height="50" relative="1" as="geometry">
            <mxPoint x="300" y="240" as="sourcePoint" />
            <mxPoint x="350" y="190" as="targetPoint" />
          </mxGeometry>
        </mxCell>
        <mxCell id="EYUkk5wbW2DX1IVmlkEt-67" value="" style="endArrow=none;html=1;rounded=0;entryX=0;entryY=0.5;entryDx=0;entryDy=0;exitX=1;exitY=0.25;exitDx=0;exitDy=0;" edge="1" parent="1" source="EYUkk5wbW2DX1IVmlkEt-59" target="EYUkk5wbW2DX1IVmlkEt-61">
          <mxGeometry width="50" height="50" relative="1" as="geometry">
            <mxPoint x="300" y="240" as="sourcePoint" />
            <mxPoint x="350" y="190" as="targetPoint" />
          </mxGeometry>
        </mxCell>
        <mxCell id="EYUkk5wbW2DX1IVmlkEt-68" value="PERTENCE" style="rhombus;whiteSpace=wrap;html=1;" vertex="1" parent="1">
          <mxGeometry x="280" y="210" width="100" height="70" as="geometry" />
        </mxCell>
        <mxCell id="EYUkk5wbW2DX1IVmlkEt-70" value="" style="endArrow=none;html=1;rounded=0;entryX=0;entryY=0;entryDx=0;entryDy=0;exitX=1;exitY=1;exitDx=0;exitDy=0;" edge="1" parent="1" source="EYUkk5wbW2DX1IVmlkEt-68" target="EYUkk5wbW2DX1IVmlkEt-59">
          <mxGeometry width="50" height="50" relative="1" as="geometry">
            <mxPoint x="300" y="240" as="sourcePoint" />
            <mxPoint x="350" y="190" as="targetPoint" />
          </mxGeometry>
        </mxCell>
        <mxCell id="EYUkk5wbW2DX1IVmlkEt-73" value="N" style="edgeLabel;html=1;align=center;verticalAlign=middle;resizable=0;points=[];" vertex="1" connectable="0" parent="EYUkk5wbW2DX1IVmlkEt-70">
          <mxGeometry x="-0.1441" y="-1" relative="1" as="geometry">
            <mxPoint y="1" as="offset" />
          </mxGeometry>
        </mxCell>
        <mxCell id="EYUkk5wbW2DX1IVmlkEt-71" value="" style="endArrow=none;html=1;rounded=0;entryX=1;entryY=1;entryDx=0;entryDy=0;exitX=0;exitY=0;exitDx=0;exitDy=0;" edge="1" parent="1" source="EYUkk5wbW2DX1IVmlkEt-68" target="EYUkk5wbW2DX1IVmlkEt-1">
          <mxGeometry width="50" height="50" relative="1" as="geometry">
            <mxPoint x="300" y="240" as="sourcePoint" />
            <mxPoint x="350" y="190" as="targetPoint" />
          </mxGeometry>
        </mxCell>
        <mxCell id="EYUkk5wbW2DX1IVmlkEt-72" value="1" style="edgeLabel;html=1;align=center;verticalAlign=middle;resizable=0;points=[];" vertex="1" connectable="0" parent="EYUkk5wbW2DX1IVmlkEt-71">
          <mxGeometry x="0.1052" y="-1" relative="1" as="geometry">
            <mxPoint y="-1" as="offset" />
          </mxGeometry>
        </mxCell>
      </root>
    </mxGraphModel>
  </diagram>
</mxfile>
